<?xml version="1.0" encoding="utf-8"?>
<!-- Generator: Adobe Illustrator 24.1.3, SVG Export Plug-In . SVG Version: 6.00 Build 0)  -->
<svg version="1.1" id="Capa_1" xmlns="http://www.w3.org/2000/svg" xmlns:xlink="http://www.w3.org/1999/xlink" x="0px" y="0px"
	 viewBox="0 0 144 145" style="enable-background:new 0 0 144 145;" xml:space="preserve">
<style type="text/css">
	.st0{clip-path:url(#SVGID_2_);}
	.st1{clip-path:url(#SVGID_4_);}
</style>
<g id="Capa_2_1_">
	<g id="Capa_1-2">
		<g>
			<g>
				<g>
					<defs>
						<path id="SVGID_1_" d="M133.8,55.4c0-9.4-5-13.4-10.7-16.1c-7.2,6.3-17.8,6.3-25,0c-3.8,1.8-7.6,4.4-9.5,9.2
							c1.5,0.8,2.8,1.7,3.9,2.9c2.8,2.9,4.3,6.8,4.2,10.8c0,0.2,0,0.5,0,0.7h37L133.8,55.4z M109.7,11.1
							c-7.6,0.5-13.4,7.1-12.8,14.7c0.5,7.6,7.1,13.4,14.7,12.8c6.9-0.5,12.4-6,12.8-12.9c0.5-7.6-5.3-14.2-12.9-14.7
							C110.8,11.1,110.3,11.1,109.7,11.1z M74.6,54.7l-2.1,2c-1,1-2.6,1-3.6,0l-2.1-2c-4.3-3.5-10.6-2.8-14.1,1.5
							c-3.1,3.8-3,9.2,0.2,12.9l17.7,17.1l17.8-17.1c4.2-3.6,4.6-9.9,1-14.1s-9.9-4.6-14.1-1C75.1,54.2,74.9,54.5,74.6,54.7z
							 M45.9,39.2c-7.2,6.3-17.8,6.3-25,0C15.2,42,10.3,46,10.3,55.4v7.5h34.5c0-0.2,0-0.5,0-0.7c-0.2-6.6,4-12.6,10.3-14.7
							C53,43.3,49.5,40.9,45.9,39.2z M33.4,11.1c-7.6,0-13.8,6.2-13.8,13.8s6.2,13.8,13.8,13.8s13.8-6.2,13.8-13.8l0,0
							C47.2,17.3,41,11.1,33.4,11.1z M54.9,128.3c0-7.4-3.9-10.8-8.4-13c-6.1,5.1-14.9,5.1-21,0c-4.5,2.2-8.4,5.5-8.4,13v5.8h37.8
							V128.3z M36,91.8c-6.1,0-11.1,4.9-11.2,11c0,6.1,4.9,11.1,11,11.2s11.1-4.9,11.2-11l0,0C47,96.8,42.1,91.8,36,91.8z M87,134.1
							h37.8v-5.8c0-7.4-3.9-10.8-8.4-13c-6.1,5.1-14.9,5.1-21,0c-4.5,2.2-8.4,5.5-8.4,13V134.1z M105.9,91.8
							c-6.1,0-11.1,5-11.1,11.1s5,11.1,11.1,11.1s11-4.9,11.1-11C117,96.8,112.1,91.8,105.9,91.8L105.9,91.8z M136.4,68.1H95.5
							c-0.8,1.8-1.9,3.4-3.3,4.8L73.6,90.8v34.1H82c1.1-7.3,5.6-11.2,9.9-13.6c-4.6-7.7-2.1-17.8,5.6-22.4s17.8-2.1,22.4,5.6
							c3.1,5.2,3.1,11.6,0,16.8c5,2.7,10.2,7.5,10.2,17v8.4c0,1.4-1.2,2.6-2.6,2.6h-43c-1.4,0-2.6-1.2-2.6-2.6l0,0v-6.6H60.1v6.6
							c0,1.4-1.2,2.6-2.6,2.6l0,0h-43c-1.4,0-2.6-1.2-2.6-2.6l0,0v-8.4c0-9.6,5.2-14.3,10.1-17c-4.6-7.7-2.1-17.8,5.6-22.4
							s17.8-2.1,22.4,5.6c3.1,5.2,3.1,11.6,0,16.8c4.3,2.4,8.8,6.3,9.9,13.6h8.5V91.2l-19-18.3c-1.4-1.4-2.5-3-3.3-4.8H7.6
							c-1.4,0-2.6-1.2-2.6-2.6l0,0V55.4c0-11.5,6.4-17.1,12.4-20.2c-5.6-8.9-2.9-20.6,6-26.2S44,6.1,49.6,15c1.9,3,2.9,6.4,2.9,9.9
							c0,3.6-1,7.2-3,10.3c4.3,2.2,8.7,5.6,10.9,11.5c3.8,0.1,7.4,1.6,10.1,4.3c0.1,0.1,0.4,0.1,0.5,0l0,0c3.4-3.2,8-4.7,12.6-4
							c2.2-6,6.6-9.4,11-11.7c-2.2-3.3-3.2-7.3-3-11.3c0.5-10.5,9.4-18.6,19.9-18.2c10.2,0.5,18.3,8.9,18.2,19.2c0,3.6-1,7.2-3,10.3
							c5.9,3.1,12.3,8.7,12.3,20.2v10.1C139,66.9,137.8,68.1,136.4,68.1z M26.4,68.1L26.4,68.1c-1.4,0-2.6-1.2-2.6-2.6
							s1.2-2.6,2.6-2.6s2.6,1.2,2.6,2.6S27.9,68.1,26.4,68.1L26.4,68.1z"/>
					</defs>
					<use xlink:href="#SVGID_1_"  style="overflow:visible;fill:#F7A41B;"/>
					<clipPath id="SVGID_2_">
						<use xlink:href="#SVGID_1_"  style="overflow:visible;"/>
					</clipPath>
					<g class="st0">
						<g>
							<g>
								<defs>
									<rect id="SVGID_3_" x="-1228.5" y="-561.7" width="1920" height="3756"/>
								</defs>
								<clipPath id="SVGID_4_">
									<use xlink:href="#SVGID_3_"  style="overflow:visible;"/>
								</clipPath>
								<g class="st1">
								</g>
							</g>
						</g>
					</g>
				</g>
			</g>
		</g>
	</g>
</g>
</svg>
