<?xml version="1.0" encoding="utf-8"?>
<!-- Generator: Adobe Illustrator 24.1.3, SVG Export Plug-In . SVG Version: 6.00 Build 0)  -->
<svg version="1.1" id="Capa_1" xmlns="http://www.w3.org/2000/svg" xmlns:xlink="http://www.w3.org/1999/xlink" x="0px" y="0px"
	 viewBox="0 0 116.2 140.1" style="enable-background:new 0 0 116.2 140.1;" xml:space="preserve">
<style type="text/css">
	.st0{clip-path:url(#SVGID_2_);}
	.st1{clip-path:url(#SVGID_4_);}
</style>
<g id="Capa_2_1_">
	<g id="Capa_1-2">
		<g id="Capa_2-2">
			<g id="Capa_1-2-2">
				<g>
					<g>
						<defs>
							<path id="SVGID_1_" d="M109,136.5H7.3c-1.6,0-2.8-1.3-2.8-2.8l0,0v-5.1c0-8.2,4.5-15.7,11.7-19.7L35,97.1
								c2.1-1,3.4-3.1,3.4-5.4V84c-2.3-2.3-8.1-9-10.4-17.8c-2.3-1.9-3.7-4.8-3.7-7.8v-9.7c0.1-2.5,1.1-4.8,2.8-6.6V29
								c0-0.4,1.7-25.4,31.1-25.4s31,25,31.1,25.3V42c1.7,1.8,2.7,4.1,2.8,6.6v9.8c0,3-1.4,5.9-3.7,7.8C86,75,80.1,81.6,77.9,83.9
								v7.7c0.1,2.2,1.3,4.3,3.3,5.3l19.1,12c7.1,3.9,11.6,11.5,11.5,19.6v5C111.8,135.2,110.5,136.5,109,136.5L109,136.5L109,136.5
								z M10.1,130.8h96v-2.3c0-6.1-3.3-11.8-8.7-14.7l-19.1-12c-3.7-2-6.1-6-6.1-10.2v-8.9c0-0.8,0.3-1.5,0.9-2.1
								c0.1-0.1,7.7-7.2,9.9-16.8c0.2-0.7,0.6-1.3,1.2-1.7c1.3-0.8,2.1-2.2,2.1-3.8v-9.7c-0.2-1.3-0.9-2.6-2-3.3
								c-0.6-0.5-0.9-1.3-0.9-2.1V29.1c0-0.6-1.5-19.8-25.4-19.8s-25.4,19.1-25.4,20v13.9c0,0.8-0.3,1.6-0.9,2.1
								c-1,0.8-1.7,2-1.9,3.4v9.8c0,1.5,0.8,2.9,2.1,3.7c0.6,0.4,1.1,1,1.2,1.7c2.2,9.7,9.8,16.8,9.9,16.8c0.6,0.5,0.9,1.3,0.9,2.1
								v8.9c0,4.3-2.4,8.3-6.2,10.3L19,113.8c-5.5,2.9-8.9,8.6-8.9,14.8V130.8z"/>
						</defs>
						<use xlink:href="#SVGID_1_"  style="overflow:visible;fill:#F7A418;"/>
						<clipPath id="SVGID_2_">
							<use xlink:href="#SVGID_1_"  style="overflow:visible;"/>
						</clipPath>
						<g class="st0">
							<g>
								<g>
									<defs>
										<rect id="SVGID_3_" x="-562.2" y="-564.5" width="1920" height="3756"/>
									</defs>
									<clipPath id="SVGID_4_">
										<use xlink:href="#SVGID_3_"  style="overflow:visible;"/>
									</clipPath>
									<g class="st1">
									</g>
								</g>
							</g>
						</g>
					</g>
				</g>
			</g>
		</g>
	</g>
</g>
</svg>
