<svg xmlns="http://www.w3.org/2000/svg" width="137.218" height="141.96" viewBox="0 0 137.218 141.96">
  <defs>
    <style>
      .cls-1 {
        fill: #003479;
        fill-rule: evenodd;
      }
    </style>
  </defs>
  <path id="_22_" data-name="22%" class="cls-1" d="M840.32,2849.37v141.97H952.91l24.611-25.51V2849.37H840.32Zm5.392,5.39H972.129v107.29H949.068v23.9H845.712V2854.76Zm28.41,71.71c7.018-5.22,11.831-10.5,11.831-17,0-6.78-5.045-10.44-11.367-10.44a16.746,16.746,0,0,0-11.078,3.66v8.12c2.2-1.92,5.742-3.83,8.526-3.83,2.9,0,4.7,1.27,4.7,4.06,0,4.81-6.322,10.15-13.862,16.7v6.32h23.953v-7.59h-12.7Zm27.143,0c7.018-5.22,11.832-10.5,11.832-17,0-6.78-5.046-10.44-11.368-10.44a16.746,16.746,0,0,0-11.078,3.66v8.12c2.2-1.92,5.742-3.83,8.526-3.83,2.9,0,4.7,1.27,4.7,4.06,0,4.81-6.322,10.15-13.862,16.7v6.32h23.954v-7.59h-12.7Zm15.312-18.56a8.874,8.874,0,1,0,8.873-8.88A8.656,8.656,0,0,0,916.577,2907.91Zm5.973,0a2.93,2.93,0,1,1,2.9,3.01A2.821,2.821,0,0,1,922.55,2907.91Zm32.074,17.86a8.874,8.874,0,1,0-8.874,8.87A8.656,8.656,0,0,0,954.624,2925.77Zm-5.916,0a2.932,2.932,0,1,1-2.958-3.07A2.817,2.817,0,0,1,948.708,2925.77Zm-0.058-26.16H943.2l-20.706,34.45h5.452Z" transform="translate(-840.313 -2849.38)"/>
</svg>
