<svg xmlns="http://www.w3.org/2000/svg" width="137.218" height="141.96" viewBox="0 0 137.218 141.96">
  <defs>
    <style>
      .cls-1 {
        fill: #00a0df;
        fill-rule: evenodd;
      }
    </style>
  </defs>
  <path id="_3" data-name="3" class="cls-1" d="M895.37,3283.73h12.308v-8.46H887.742l-1.41,20c6.667,0.51,13.333,1.66,13.333,6.34,0,3.59-2.564,4.56-6.154,4.56a16.245,16.245,0,0,1-9.359-3.4v8.4c2.18,1.66,6.154,2.82,9.808,2.82,8.654,0,14.552-4.43,14.552-12.7,0-8.39-5.962-11.73-13.526-12.75Zm4.093,51.46-13.928,29.66h9.756l14.249-29.59v-8.54H883.8v8.47h15.661Zm35.549,11.5c-0.9-9.98-5.722-11.98-5.722-11.98a9.033,9.033,0,0,0-9.569.76c-3.18,2.86-3.915,7.22-4.416,11.43-0.256,2.14,3.138,2.12,3.389,0a25.865,25.865,0,0,1,2.992-8.36l-0.292,3.6-3.83,11.67h3.1v9.25a1.75,1.75,0,0,0,1.776,1.8,1.838,1.838,0,0,0,1.879-1.8v-9.25h1.658v9.29a1.7,1.7,0,0,0,3.392,0v-9.29h3.171l-3.027-11.69c0-1.12-.711-2.82-0.711-3.51a22.025,22.025,0,0,1,2.824,8.08C931.874,3348.81,935.267,3348.83,935.012,3346.69Zm-9.855-19.96a3.23,3.23,0,1,1-3.267,3.23A3.252,3.252,0,0,1,925.157,3326.73Zm5.92-42.22H918.725a1.831,1.831,0,0,0-1.827,1.84v13.19a1.827,1.827,0,1,0,3.653,0V3288h0.465v24.62a1.827,1.827,0,1,0,3.653,0v-12.89h0.464v12.89a1.827,1.827,0,1,0,3.654,0V3288h0.464v11.54a1.827,1.827,0,1,0,3.653,0v-13.19A1.831,1.831,0,0,0,931.077,3284.51Zm-10.352-5.05a4.176,4.176,0,1,1,4.176,4.22A4.19,4.19,0,0,1,920.725,3279.46Zm-80.4-30.09v141.97H952.91l24.611-25.51V3249.37H840.32Zm5.392,5.39H972.129v107.29H949.068v23.9H845.712V3254.76Z" transform="translate(-840.313 -3249.38)"/>
</svg>
