<svg xmlns="http://www.w3.org/2000/svg" width="137.218" height="141.96" viewBox="0 0 137.218 141.96">
  <defs>
    <style>
      .cls-1 {
        fill: #00a0df;
        fill-rule: evenodd;
      }
    </style>
  </defs>
  <path id="_50_Millones" data-name="50 Millones" class="cls-1" d="M840.32,3049.37v141.97H952.91l24.611-25.51V3049.37H840.32Zm5.392,5.39H972.129v107.29H949.068v23.9H845.712V3054.76Zm46.77,36.86h11.136v-7.66H885.58l-1.276,18.1c6.032,0.46,12.064,1.5,12.064,5.74,0,3.25-2.32,4.12-5.568,4.12a14.682,14.682,0,0,1-8.468-3.08v7.6a15.884,15.884,0,0,0,8.874,2.55c7.83,0,13.166-4,13.166-11.48,0-7.6-5.394-10.62-12.238-11.54Zm15.022,9.62c0,10.44,5.452,17.75,13.746,17.75,8.236,0,13.688-7.31,13.688-17.75,0-10.55-5.452-17.86-13.688-17.86C912.956,3083.38,907.5,3090.69,907.5,3101.24Zm8.584,0c0-7.19,2.03-10.55,5.162-10.55,3.074,0,5.162,3.36,5.162,10.55,0,7.08-2.088,10.44-5.162,10.44C918.118,3111.68,916.088,3108.32,916.088,3101.24Zm-45.279,47.17,3.336-10.82,1.508,10.82h4.293l-2.349-17.23h-5.192l-3.394,11.66-3.6-11.66h-5.163l-2.35,17.23h4.264l1.479-10.82,3.336,10.82h3.829Zm15.977-13.05h-4.119v13.05h4.119v-13.05Zm-2.06-1.57a2.365,2.365,0,1,0-2.378-2.35A2.374,2.374,0,0,0,884.726,3133.79Zm9.716-5.1h-4.119v19.72h4.119v-19.72Zm7.655,0h-4.118v19.72H902.1v-19.72Zm2.58,13.2a6.919,6.919,0,1,0,6.9-6.82A6.631,6.631,0,0,0,904.677,3141.89Zm9.688,0c0,2.06-1.16,3.27-2.784,3.27-1.6,0-2.756-1.21-2.756-3.27s1.16-3.28,2.756-3.28C913.205,3138.61,914.365,3139.83,914.365,3141.89Zm6.726,6.52h4.119v-9.34a6.464,6.464,0,0,1,2.089-.32,1.644,1.644,0,0,1,1.856,1.86v7.8h4.119v-7.97c0-4.12-2.263-5.37-5.685-5.37a18.973,18.973,0,0,0-6.5,1.22v12.12Zm26.711-5.25v-1.77c0-3.39-1.392-6.32-5.714-6.32-3.713,0-6.44,2.61-6.44,7.02,0,4,2.611,6.61,7.02,6.61a8.962,8.962,0,0,0,4.786-1.16v-3.39a8.867,8.867,0,0,1-4.322,1.04c-1.508,0-3.162-.58-3.51-1.97v-0.06h8.18Zm-8.151-2.32c0.232-1.42,1.016-2.41,2.35-2.41,1.508,0,2.03,1.16,2.03,2.41h-4.38Zm10.555,6.79a9.01,9.01,0,0,0,4.438,1.07c3.249,0,5.425-1.33,5.425-4.23,0-2.35-1.016-3.77-4.758-4.38-0.957-.15-1.334-0.41-1.334-0.9,0-.44.348-0.84,1.45-0.84a6.752,6.752,0,0,1,3.742,1.22v-3.51a7.448,7.448,0,0,0-3.916-.99c-2.958,0-5.279,1.36-5.279,4.41,0,2.46,1.334,3.71,4.5,4.15,1.218,0.17,1.6.46,1.6,0.98,0,0.58-.639.81-1.538,0.81a8.752,8.752,0,0,1-4.322-1.42v3.63Z" transform="translate(-840.313 -3049.38)"/>
</svg>
